<?xml version="1.0" encoding="UTF-8" standalone="no"?>
<svg
   xmlns:dc="http://purl.org/dc/elements/1.1/"
   xmlns:cc="http://creativecommons.org/ns#"
   xmlns:rdf="http://www.w3.org/1999/02/22-rdf-syntax-ns#"
   xmlns:svg="http://www.w3.org/2000/svg"
   xmlns="http://www.w3.org/2000/svg"
   xmlns:sodipodi="http://sodipodi.sourceforge.net/DTD/sodipodi-0.dtd"
   xmlns:inkscape="http://www.inkscape.org/namespaces/inkscape"
   width="104.12254mm"
   height="151.70117mm"
   viewBox="0 0 104.12254 151.70117"
   version="1.1"
   id="svg8"
   inkscape:version="1.0.2 (e86c8708, 2021-01-15)"
   sodipodi:docname="flower.svg"
   inkscape:export-filename="/Users/martin/Pictures/flower.png"
   inkscape:export-xdpi="96"
   inkscape:export-ydpi="96">
  <defs
     id="defs2" />
  <sodipodi:namedview
     id="base"
     pagecolor="#ffffff"
     bordercolor="#666666"
     borderopacity="1.0"
     inkscape:pageopacity="0.0"
     inkscape:pageshadow="2"
     inkscape:zoom="0.74580591"
     inkscape:cx="41.581343"
     inkscape:cy="209.6737"
     inkscape:document-units="mm"
     inkscape:current-layer="layer1"
     inkscape:document-rotation="0"
     showgrid="false"
     inkscape:snap-global="false"
     inkscape:window-width="1331"
     inkscape:window-height="847"
     inkscape:window-x="0"
     inkscape:window-y="25"
     inkscape:window-maximized="0"
     fit-margin-top="0"
     fit-margin-left="0"
     fit-margin-right="0"
     fit-margin-bottom="0" />
  <metadata
     id="metadata5">
    <rdf:RDF>
      <cc:Work
         rdf:about="">
        <dc:format>image/svg+xml</dc:format>
        <dc:type
           rdf:resource="http://purl.org/dc/dcmitype/StillImage" />
        <dc:title></dc:title>
      </cc:Work>
    </rdf:RDF>
  </metadata>
  <g
     inkscape:label="Layer 1"
     inkscape:groupmode="layer"
     id="layer1"
     transform="translate(-48.318779,-83.138198)">
    <path
       style="fill:#69d04d;fill-opacity:1;stroke:#000000;stroke-width:0.865;stroke-linecap:butt;stroke-linejoin:miter;stroke-miterlimit:4;stroke-dasharray:none;stroke-opacity:1"
       d="m 105.30419,161.69806 c 0,0 21.67983,36.48564 19.77795,49.9794 -1.90188,13.49376 -17.10525,22.18337 -17.10525,22.18337 l 5.34539,0.53454 c 0,0 16.69487,-9.43328 18.44159,-23.51971 1.74672,-14.08643 -22.45063,-50.51394 -22.45063,-50.51394 z"
       id="path837"
       sodipodi:nodetypes="czcczcc" />
    <path
       style="fill:#ffe0ff;fill-opacity:1;stroke:#000000;stroke-width:0.865;stroke-linecap:butt;stroke-linejoin:miter;stroke-miterlimit:4;stroke-dasharray:none;stroke-opacity:1"
       d="m 87.690475,123.22024 c 0,0 -25.955445,-32.057606 -4.573703,-38.934808 21.381738,-6.877202 19.692748,37.422898 19.692748,37.422898 0,0 2.37413,-48.303691 23.7018,-35.972586 21.32767,12.331105 -13.11846,44.288066 -13.11846,44.288066 0,0 37.94439,-26.54875 38.60729,-5.81048 0.6629,20.73828 -36.33944,16.39381 -36.33944,16.39381 0,0 42.0434,5.19113 31.65829,22.86987 -10.3851,17.67873 -35.43805,-14.55439 -35.43805,-14.55439 0,0 24.24307,29.72488 3.42078,37.25521 -20.822284,7.53032 -17.783874,-29.69569 -17.783874,-29.69569 0,0 -13.401084,39.83531 -30.597077,26.06137 -17.195992,-13.77395 21.525647,-33.62089 21.525647,-33.62089 0,0 -36.935843,19.24544 -39.042251,-1.19878 -2.106409,-20.44423 32.238681,-11.65241 32.238681,-11.65241 0,0 -43.010906,-10.98684 -30.688788,-29.30659 12.322119,-18.319747 36.736407,16.4554 36.736407,16.4554 z"
       id="path10"
       sodipodi:nodetypes="czczczczczczczczc" />
    <path
       style="fill:#ffe034;fill-opacity:1;stroke:#000000;stroke-width:0.865;stroke-linecap:butt;stroke-linejoin:miter;stroke-miterlimit:4;stroke-dasharray:none;stroke-opacity:1"
       d="m 99.156994,125.3494 c 6.178746,0.30734 12.624666,6.84432 12.561666,12.82894 -0.063,5.98462 -6.58947,12.44317 -12.828938,12.56167 -6.239468,0.1185 -14.562571,-6.6555 -14.432552,-13.09621 0.130019,-6.44071 8.52108,-12.60174 14.699824,-12.2944 z"
       id="path12"
       sodipodi:nodetypes="zzzzz" />
  </g>
</svg>
